<svg xmlns="http://www.w3.org/2000/svg" viewBox="0 0 900 560"><defs><linearGradient id="g" x1="0" y1="0" x2="1" y2="1"><stop stop-color="#171526"/><stop offset="1" stop-color="#090811"/></linearGradient><filter id="s"><feDropShadow dx="0" dy="20" stdDeviation="20" flood-opacity=".5"/></filter></defs><rect width="900" height="560" fill="url(#g)"/><ellipse cx="450" cy="410" rx="290" ry="55" fill="#000" opacity=".35"/><g filter="url(#s)"><path d="M220 300 Q230 170 340 175 L450 210 L560 175 Q670 170 680 300 L625 390 Q590 420 560 375 L520 320 L380 320 L340 375 Q310 420 275 390Z" fill="#f1f2f5"/><path d="M330 180 L450 215 L570 180 L540 285 L360 285Z" fill="#0b0c12"/><circle cx="375" cy="250" r="23" fill="#141622"/><circle cx="525" cy="250" r="23" fill="#141622"/><circle cx="450" cy="235" r="14" fill="#11131a"/><circle cx="450" cy="290" r="30" fill="#171a25"/><circle cx="420" cy="280" r="6" fill="#fff"/><circle cx="480" cy="280" r="6" fill="#fff"/></g><text x="450" y="500" fill="#fff" font-family="Arial" font-size="25" text-anchor="middle" opacity=".8">DUALSENSE</text></svg>